<svg xmlns="http://www.w3.org/2000/svg" viewBox="0 0 578.632 396.434"><path d="M168.422 181.166c26.681-17.654 44.429-47.928 44.429-82.214 0-54.279-44.127-98.516-98.406-98.516S16.007 44.717 16.007 98.717h30c0-37 30.685-68.281 68.422-68.281s68.422 30.857 68.422 68.594-30.469 68.438-68.469 68.438v30.118c47 0 84.592 37.819 84.592 84.424s-37.847 84.425-84.452 84.425S30 328.717 30 281.717H0c0 64 51.374 114.717 114.521 114.717s114.452-51.278 114.452-114.425c.001-43.596-24.593-81.53-60.551-100.843zM402.889 1L227.146 395.717h32.502L402.889 74l143.24 321.717h32.503z"/></svg>